<?xml version="1.0" standalone="no"?>
<!DOCTYPE svg PUBLIC "-//W3C//DTD SVG 20010904//EN"
 "http://www.w3.org/TR/2001/REC-SVG-20010904/DTD/svg10.dtd">
<svg version="1.0" xmlns="http://www.w3.org/2000/svg"
 width="200.000000pt" height="200.000000pt" viewBox="0 0 200.000000 200.000000"
 preserveAspectRatio="xMidYMid meet">

<g transform="translate(0.000000,200.000000) scale(0.100000,-0.100000)"
fill="#000000" stroke="none">
<path d="M0 1530 l0 -471 195 1 195 1 0 314 c0 272 2 316 16 329 14 14 84 16
621 16 565 0 607 -1 619 -17 11 -14 13 -105 14 -440 0 -510 16 -463 -155 -463
-63 0 -115 -3 -115 -8 0 -4 6 -16 13 -27 8 -11 54 -96 102 -190 49 -93 117
-224 152 -290 35 -66 83 -157 106 -202 l42 -83 98 0 97 0 0 1000 0 1000 -1000
0 -1000 0 0 -470z"/>
<path d="M684 1482 c-28 -18 -34 -56 -34 -211 0 -198 1 -200 113 -203 199 -4
582 4 599 13 16 9 18 25 18 193 0 164 -2 185 -18 199 -17 15 -55 17 -343 17
-178 0 -329 -4 -335 -8z"/>
<path d="M0 400 l0 -400 750 0 c413 0 750 2 750 4 0 3 -30 63 -68 133 -37 71
-130 249 -207 396 l-140 267 -217 0 -218 0 0 -213 c0 -260 7 -247 -128 -247
-137 0 -132 -10 -132 250 l0 210 -195 0 -195 0 0 -400z"/>
</g>
</svg>
